<svg width="32" height="32" viewBox="0 0 32 32" fill="none" xmlns="http://www.w3.org/2000/svg">
<path d="M8.1012 9C9.02744 9 9.8765 9.13576 10.6484 9.40727C11.4288 9.6703 12.1321 10.0182 12.7581 10.4509C13.3928 10.8752 13.9503 11.3248 14.4305 11.8C14.7393 12.08 15.0223 12.3685 15.2796 12.6655C15.5455 12.9624 15.7942 13.2509 16.0257 13.5309C16.2316 13.2509 16.4503 12.9752 16.6818 12.7036C16.9134 12.4321 17.2093 12.1309 17.5695 11.8C18.2899 11.0873 19.1775 10.4424 20.2324 9.86545C21.2959 9.28848 22.5352 9 23.9503 9C25.2539 9 26.4374 9.31394 27.5009 9.94182C28.5729 10.5612 29.422 11.4012 30.048 12.4618C30.6827 13.5139 31 14.6848 31 15.9745C31 16.9503 30.8156 17.8667 30.4468 18.7236C30.0866 19.5721 29.5849 20.3188 28.9417 20.9636C28.2985 21.6 27.548 22.1006 26.6904 22.4655C25.8413 22.8218 24.928 23 23.9503 23C23.0069 23 22.1407 22.8685 21.3516 22.6055C20.5712 22.3339 19.8636 21.9903 19.229 21.5745C18.6029 21.1503 18.0497 20.7091 17.5695 20.2509C17.2607 19.9455 16.9777 19.6442 16.7204 19.3473C16.4631 19.0418 16.2316 18.7491 16.0257 18.4691C15.7942 18.7491 15.5455 19.0418 15.2796 19.3473C15.0223 19.6442 14.7393 19.9455 14.4305 20.2509C13.9503 20.7091 13.3928 21.1503 12.7581 21.5745C12.1321 21.9903 11.4288 22.3339 10.6484 22.6055C9.8765 22.8685 9.02744 23 8.1012 23C6.78045 23 5.58405 22.6861 4.51201 22.0582C3.43997 21.4303 2.58662 20.5861 1.95197 19.5255C1.31732 18.4648 1 17.2812 1 15.9745C1 15.0073 1.1801 14.1036 1.54031 13.2636C1.90909 12.4152 2.41509 11.6727 3.05832 11.0364C3.71012 10.4 4.46484 9.90364 5.32247 9.54727C6.18868 9.18242 7.11492 9 8.1012 9ZM3.9331 15.9745C3.9331 16.7382 4.1175 17.4339 4.48628 18.0618C4.86364 18.6812 5.36535 19.1776 5.99142 19.5509C6.62607 19.9158 7.32933 20.0982 8.1012 20.0982C8.95026 20.0982 9.72641 19.9073 10.4297 19.5255C11.1329 19.1436 11.7804 18.6727 12.3722 18.1127C12.7581 17.7309 13.0969 17.3618 13.3885 17.0055C13.6801 16.6491 13.9417 16.3055 14.1732 15.9745C13.9417 15.6691 13.6844 15.3424 13.4014 14.9945C13.1269 14.6382 12.7839 14.2691 12.3722 13.8873C11.8062 13.3273 11.163 12.8564 10.4425 12.4745C9.7307 12.0927 8.95026 11.9018 8.1012 11.9018C7.32933 11.9018 6.62607 12.0885 5.99142 12.4618C5.36535 12.8267 4.86364 13.3188 4.48628 13.9382C4.1175 14.5491 3.9331 15.2279 3.9331 15.9745ZM28.0669 15.9745C28.0669 15.2279 27.8782 14.5491 27.5009 13.9382C27.1321 13.3188 26.6346 12.8267 26.0086 12.4618C25.3911 12.0885 24.705 11.9018 23.9503 11.9018C23.3671 11.9018 22.8182 11.9909 22.3036 12.1691C21.789 12.3388 21.3087 12.5764 20.8628 12.8818C20.4168 13.1788 20.0051 13.5139 19.6278 13.8873C19.1647 14.32 18.7787 14.74 18.47 15.1473C18.1698 15.5461 17.9554 15.8218 17.8268 15.9745C18.0583 16.3055 18.3199 16.6491 18.6115 17.0055C18.9031 17.3618 19.2419 17.7309 19.6278 18.1127C20.2196 18.6727 20.8671 19.1436 21.5703 19.5255C22.2822 19.9073 23.0755 20.0982 23.9503 20.0982C24.705 20.0982 25.3911 19.9158 26.0086 19.5509C26.6346 19.1776 27.1321 18.6812 27.5009 18.0618C27.8782 17.4339 28.0669 16.7382 28.0669 15.9745Z" fill="#10091E"/>
<path d="M9 23.8988C9 22.9726 9.13576 22.1235 9.40727 21.3516C9.6703 20.5712 10.0182 19.8679 10.4509 19.2419C10.8752 18.6072 11.3248 18.0497 11.8 17.5695C12.08 17.2607 12.3685 16.9777 12.6655 16.7204C12.9624 16.4545 13.2509 16.2058 13.5309 15.9743C13.2509 15.7684 12.9752 15.5497 12.7036 15.3182C12.4321 15.0866 12.1309 14.7907 11.8 14.4305C11.0873 13.7101 10.4424 12.8225 9.86545 11.7676C9.28848 10.7041 9 9.46484 9 8.04974C9 6.74614 9.31394 5.56261 9.94182 4.49914C10.5612 3.4271 11.4012 2.57804 12.4618 1.95197C13.5139 1.31732 14.6848 1 15.9745 1C16.9503 1 17.8667 1.18439 18.7236 1.55317C19.5721 1.91338 20.3188 2.41509 20.9636 3.05832C21.6 3.70154 22.1006 4.45197 22.4655 5.30961C22.8218 6.15866 23 7.07204 23 8.04974C23 8.99314 22.8685 9.85935 22.6055 10.6484C22.3339 11.4288 21.9903 12.1364 21.5745 12.771C21.1503 13.3971 20.7091 13.9503 20.2509 14.4305C19.9455 14.7393 19.6442 15.0223 19.3473 15.2796C19.0418 15.5369 18.7491 15.7684 18.4691 15.9743C18.7491 16.2058 19.0418 16.4545 19.3473 16.7204C19.6442 16.9777 19.9455 17.2607 20.2509 17.5695C20.7091 18.0497 21.1503 18.6072 21.5745 19.2419C21.9903 19.8679 22.3339 20.5712 22.6055 21.3516C22.8685 22.1235 23 22.9726 23 23.8988C23 25.2196 22.6861 26.416 22.0582 27.488C21.4303 28.56 20.5861 29.4134 19.5255 30.048C18.4648 30.6827 17.2812 31 15.9745 31C15.0073 31 14.1036 30.8199 13.2636 30.4597C12.4152 30.0909 11.6727 29.5849 11.0364 28.9417C10.4 28.2899 9.90364 27.5352 9.54727 26.6775C9.18242 25.8113 9 24.8851 9 23.8988ZM15.9745 28.0669C16.7382 28.0669 17.4339 27.8825 18.0618 27.5137C18.6812 27.1364 19.1776 26.6346 19.5509 26.0086C19.9158 25.3739 20.0982 24.6707 20.0982 23.8988C20.0982 23.0497 19.9073 22.2736 19.5255 21.5703C19.1436 20.8671 18.6727 20.2196 18.1127 19.6278C17.7309 19.2419 17.3618 18.9031 17.0055 18.6115C16.6491 18.3199 16.3055 18.0583 15.9745 17.8268C15.6691 18.0583 15.3424 18.3156 14.9945 18.5986C14.6382 18.8731 14.2691 19.2161 13.8873 19.6278C13.3273 20.1938 12.8564 20.837 12.4745 21.5575C12.0927 22.2693 11.9018 23.0497 11.9018 23.8988C11.9018 24.6707 12.0885 25.3739 12.4618 26.0086C12.8267 26.6346 13.3188 27.1364 13.9382 27.5137C14.5491 27.8825 15.2279 28.0669 15.9745 28.0669ZM15.9745 3.9331C15.2279 3.9331 14.5491 4.12178 13.9382 4.49914C13.3188 4.86793 12.8267 5.36535 12.4618 5.99142C12.0885 6.60892 11.9018 7.29503 11.9018 8.04974C11.9018 8.63293 11.9909 9.18182 12.1691 9.6964C12.3388 10.211 12.5764 10.6913 12.8818 11.1372C13.1788 11.5832 13.5139 11.9949 13.8873 12.3722C14.32 12.8353 14.74 13.2213 15.1473 13.53C15.5461 13.8302 15.8218 14.0446 15.9745 14.1732C16.3055 13.9417 16.6491 13.6801 17.0055 13.3885C17.3618 13.0969 17.7309 12.7581 18.1127 12.3722C18.6727 11.7804 19.1436 11.1329 19.5255 10.4297C19.9073 9.71784 20.0982 8.92453 20.0982 8.04974C20.0982 7.29503 19.9158 6.60892 19.5509 5.99142C19.1776 5.36535 18.6812 4.86793 18.0618 4.49914C17.4339 4.12178 16.7382 3.9331 15.9745 3.9331Z" fill="#10091E"/>
</svg>
